<svg xmlns="http://www.w3.org/2000/svg" width="55" height="55" viewBox="0 0 55 55"><g fill="none" fill-rule="evenodd" stroke="none" stroke-width="1"><g fill="#003B5C" fill-rule="nonzero" transform="translate(-801 -448)"><g transform="translate(460 220)"><g transform="translate(341 228)"><path d="M49.81 4.594h-7.548V3.33C42.262 1.497 40.88 0 39.19 0 37.5 0 36.12 1.497 36.12 3.33v1.264H18.905V3.33C18.905 1.497 17.524 0 15.833 0c-1.69 0-3.095 1.497-3.095 3.33v1.264H5.19C2.333 4.594 0 7.124 0 10.221v39.153C0 52.47 2.333 55 5.19 55h44.62c2.857 0 5.19-2.53 5.19-5.626V10.246c0-3.123-2.333-5.652-5.19-5.652zM38 3.33c0-.696.524-1.264 1.167-1.264s1.166.568 1.166 1.264v6.917c0 .697-.523 1.265-1.166 1.265-.643 0-1.167-.568-1.167-1.265V3.33zm-23.357 0c0-.696.524-1.264 1.167-1.264.642 0 1.166.568 1.166 1.264v6.917c0 .697-.524 1.265-1.166 1.265-.643 0-1.167-.568-1.167-1.265V3.33zM53.095 49.4c0 1.962-1.476 3.562-3.285 3.562H5.19c-1.809 0-3.285-1.6-3.285-3.562V18.196H49.81c.523 0 .952-.465.952-1.033 0-.568-.429-1.032-.952-1.032H1.905v-5.885c0-1.961 1.476-3.561 3.285-3.561h7.548v3.561c0 1.833 1.381 3.33 3.072 3.33 1.69 0 3.071-1.497 3.071-3.33V6.66h17.214v3.562c0 1.832 1.381 3.329 3.072 3.329 1.69 0 3.095-1.471 3.095-3.304V6.66h7.548c1.809 0 3.285 1.6 3.285 3.562v39.178z"></path><path d="M14.008 25.667h-3.953c-.489 0-.888.275-.888.61 0 .337.4.612.888.612h3.953c.488 0 .888-.275.888-.611 0-.336-.4-.611-.888-.611zM24.32 25.667h-3.953c-.488 0-.888.275-.888.61 0 .337.4.612.888.612h3.953c.489 0 .888-.275.888-.611 0-.336-.4-.611-.888-.611zM34.633 25.667H30.68c-.489 0-.888.275-.888.61 0 .337.4.612.888.612h3.953c.488 0 .888-.275.888-.611 0-.336-.4-.611-.888-.611zM44.945 25.667h-3.953c-.488 0-.888.275-.888.61 0 .337.4.612.888.612h3.953c.489 0 .888-.275.888-.611 0-.336-.4-.611-.888-.611zM14.008 34.222h-3.953c-.489 0-.888.275-.888.611 0 .336.4.611.888.611h3.953c.488 0 .888-.275.888-.61 0-.337-.4-.612-.888-.612zM24.32 34.222h-3.953c-.488 0-.888.275-.888.611 0 .336.4.611.888.611h3.953c.489 0 .888-.275.888-.61 0-.337-.4-.612-.888-.612zM34.633 34.222H30.68c-.489 0-.888.275-.888.611 0 .336.4.611.888.611h3.953c.488 0 .888-.275.888-.61 0-.337-.4-.612-.888-.612zM44.945 34.222h-3.953c-.488 0-.888.275-.888.611 0 .336.4.611.888.611h3.953c.489 0 .888-.275.888-.61 0-.337-.4-.612-.888-.612zM14.008 42.778h-3.953c-.489 0-.888.275-.888.61 0 .337.4.612.888.612h3.953c.488 0 .888-.275.888-.611 0-.336-.4-.611-.888-.611zM24.32 42.778h-3.953c-.488 0-.888.275-.888.61 0 .337.4.612.888.612h3.953c.489 0 .888-.275.888-.611 0-.336-.4-.611-.888-.611zM34.633 42.778H30.68c-.489 0-.888.275-.888.61 0 .337.4.612.888.612h3.953c.488 0 .888-.275.888-.611 0-.336-.4-.611-.888-.611z"></path></g></g></g></g></svg>

