<svg xmlns="http://www.w3.org/2000/svg" width="55" height="35" viewBox="0 0 55 35"><g fill="none" fill-rule="evenodd" stroke="none" stroke-width="1"><g fill="#003B5C" fill-rule="nonzero" transform="translate(-1326 -458)"><g transform="translate(460 220)"><g transform="translate(866 238)"><path d="M51.42 34.71H3.53A3.544 3.544 0 010 31.18V3.53C0 1.592 1.591 0 3.53 0h47.94C53.408 0 55 1.591 55 3.53v27.7c-.05 1.89-1.641 3.48-3.58 3.48zM3.53 1.99a1.55 1.55 0 00-1.54 1.54v27.7a1.55 1.55 0 001.54 1.541h47.94a1.55 1.55 0 001.54-1.541V3.53a1.55 1.55 0 00-1.54-1.54H3.53z"></path><path d="M48.137 9.995H6.813a.997.997 0 01-.995-.994c0-.547.448-.995.995-.995h41.324c.547 0 .995.448.995.995a.997.997 0 01-.995.994zM48.137 17.256H6.813a.997.997 0 01-.995-.995c0-.547.448-.994.995-.994h41.324c.547 0 .995.447.995.994a.997.997 0 01-.995.995zM13.924 27.898H6.813a.997.997 0 01-.995-.995c0-.547.448-.994.995-.994h7.111c.547 0 .995.447.995.994a.997.997 0 01-.995.995z"></path></g></g></g></g></svg>