<svg xmlns="http://www.w3.org/2000/svg" width="55" height="55" viewBox="0 0 55 55"><g fill="none" fill-rule="evenodd" stroke="none" stroke-width="1"><g fill="#003B5C" fill-rule="nonzero" transform="translate(-1064 -448)"><g transform="translate(460 220)"><g transform="translate(604 228)"><g><path d="M17.258 23.37c-1.408 0-2.628-.563-3.567-1.501a.454.454 0 010-.657c.094-.094.282-.188.376-.188.187 0 .281.094.375.188a4.022 4.022 0 005.725 0c.094-.094.188-.188.376-.188.187 0 .281.094.375.188a.454.454 0 010 .657c-1.032.938-2.346 1.501-3.66 1.501z"></path><path d="M24.579 27.97c1.032.187 1.877.375 2.721.656l.376-1.314a12.704 12.704 0 00-3.379-.75c-.188 0-.375 0-.47.093-.187-.187-.469-.657-.656-1.501 1.595-1.596 2.815-3.66 3.472-5.726 1.596-.844 2.347-2.346 2.16-4.317 0-.282-.189-.563-.376-.845.094-1.032.469-6.57-.939-10.7-.094-.375-.47-.563-.845-.469l-1.22.563c-.281-.844-.938-2.252-2.722-3.19-.281-.188-.657-.095-.844.187 0 0-.751.939-1.408 1.502-.563-.563-1.502-1.408-2.816-2.065C17.445 0 17.352 0 17.258 0c-.094 0-.188 0-.282.094-1.314.75-2.252 1.595-2.816 2.065-.657-.657-1.407-1.502-1.407-1.502-.188-.282-.564-.282-.845-.188a6.028 6.028 0 00-2.722 3.098l-1.314-.282c-.375-.094-.75.094-.845.375-1.408 4.13-1.032 9.574-.938 10.7-.188.188-.376.47-.376.845-.187 1.97.47 3.472 2.065 4.317.657 2.065 1.877 4.13 3.473 5.725-.188.845-.47 1.314-.657 1.502-.094-.094-.282-.188-.47-.094-3.754.47-6.57 1.877-8.259 4.13-2.252 3.003-1.877 6.57-1.783 7.227v3.66c0 .376.282.657.657.657a.642.642 0 00.657-.657V38.67h5.256v3.097c0 .376.281.657.657.657a.642.642 0 00.657-.657v-4.88a.642.642 0 00-.657-.657.642.642 0 00-.657.657v.469H1.49c-.094-1.126 0-3.567 1.595-5.725 1.408-1.877 3.755-3.098 6.852-3.567.657 1.033 2.722 3.379 7.32 3.379h.095c4.505-.094 6.57-2.44 7.227-3.473zM8.154 4.786l1.22.375c.187.094.375 0 .563-.094a.516.516 0 00.281-.469c0-.094.188-1.502 1.784-2.534.469.47 1.126 1.22 1.69 1.69a.722.722 0 00.938-.095s1.032-1.126 2.628-2.064a12.546 12.546 0 012.628 2.064.722.722 0 00.938.094c.563-.469 1.314-1.22 1.69-1.69C24.109 3.192 24.297 4.6 24.297 4.6c0 .188.094.375.282.47.187.093.375.187.563.093l1.22-.375c.938 3.379.845 7.508.657 9.01h-.282a5.116 5.116 0 01-1.126-2.253c-.188-.844-.657-2.064-1.408-3.19-.188-.282-.657-.376-.938-.188-2.065 1.314-5.163.563-7.79 0-2.535-.564-4.506-1.033-5.35.187-.845 1.127-1.22 2.347-1.408 3.191a5.116 5.116 0 01-1.127 2.253h-.187c-.094-1.502-.282-5.725.75-9.01zm.938 13.984c-.094-.187-.188-.375-.375-.375-1.22-.563-1.784-1.596-1.596-3.097 0-.094.094-.188.094-.188h.188l.187.094c.282.187.657.094.845-.188l.094-.094c.75-.845 1.408-1.877 1.69-3.097.187-.75.563-1.783 1.22-2.722.375-.47 2.346-.094 3.942.282 2.628.563 5.725 1.314 8.165.187.47.751.751 1.596.845 2.16.281 1.22.845 2.252 1.69 3.096 0 0 .093 0 .093.094.188.282.563.376.845.188l.188-.094h.187s.094.094.094.188c.188 1.501-.375 2.534-1.595 3.097a.733.733 0 00-.376.375c-1.22 3.849-4.411 7.79-8.165 7.79-3.849.094-7.04-3.754-8.26-7.696zm8.166 11.263c-3.191 0-4.975-1.314-5.726-2.159.282-.281.751-.75 1.033-1.595 1.408 1.032 3.003 1.69 4.787 1.69 1.783 0 3.378-.658 4.786-1.69.282.845.657 1.314.939 1.595-.845.845-2.628 2.16-5.82 2.16z"></path><circle cx="13.691" cy="15.956" r="1"></circle><circle cx="20.73" cy="15.956" r="1"></circle></g><g transform="translate(25.763 12.487)"><path d="M28.755 36.788c-.094-.188-.281-.376-.469-.564a6.25 6.25 0 01-.563-1.126c-.376-1.22-1.877-4.13-6.945-5.162-.751-.47-1.127-1.22-1.314-1.596 1.877-1.595 3.285-4.035 4.035-6.288 2.44-1.126 2.347-3.379 2.16-4.317-.095-.563-.47-.939-1.033-1.127a9.637 9.637 0 00-1.971-5.443c.657-.563 1.126-2.065 1.126-3.004 0-1.408-.657-1.877-1.126-2.065a4.353 4.353 0 00-1.784-.375C22.842 3.093 22.28.653 22.185.559c-.093-.282-.281-.47-.563-.47-2.065-.281-3.566.094-4.693 1.22-.938.94-1.22 2.16-1.314 3.098-.563-.282-1.126-.563-1.877-.657-.469-.094-1.314 0-1.97 1.22-.376.751-.752 1.971-.658 2.91-3.848 1.314-6.57 4.88-6.757 8.822-.47.188-.939.563-1.033 1.127-.188.938-.375 3.19 2.159 4.317.75 2.346 2.159 4.693 4.036 6.288A3.305 3.305 0 018.2 30.03c-5.162 1.032-6.57 3.942-6.946 5.162-.187.47-.281.845-.469 1.126-.188.282-.282.47-.47.563a1.06 1.06 0 00-.28 1.033c.093.375.28.75.562.938.376.188.657.376 1.033.564v2.44c0 .375.281.657.657.657a.642.642 0 00.657-.657v-1.783c1.595.75 2.91 1.126 3.66 1.22v.563c0 .375.282.657.657.657a.642.642 0 00.657-.657V40.73c0-.376-.281-.657-.563-.657 0 0-2.816-.376-6.1-2.253.187-.188.375-.47.562-.75.282-.376.47-.94.657-1.503.282-.938 1.408-3.19 5.538-4.13.47.94 1.877 2.91 4.693 3.755.47.094.938.188 1.314.188h.657c.47 0 .845-.094 1.314-.188 2.816-.845 4.13-2.816 4.693-3.754 4.035.938 5.256 3.19 5.537 4.13.188.563.376 1.032.657 1.501.188.282.376.563.563.657-3.285 2.065-6.006 2.347-6.1 2.347-.376 0-.563.375-.563.657v1.126c0 .375.281.657.657.657a.642.642 0 00.657-.657v-.563c.75-.188 2.064-.47 3.66-1.22v1.783c0 .375.281.657.657.657a.642.642 0 00.657-.657v-2.44c.281-.188.657-.376 1.032-.564.376-.187.563-.563.563-.938.47-.47.282-.845.094-1.126zm-10.7-34.634c.658-.657 1.69-.938 3.004-.844.094.844-.094 2.815-2.159 4.599-.187.094-.281.094-.469.187-.094-.093-.281-.093-.47-.187-.187 0-.28-.094-.468-.094-.094-.188-.282-.282-.376-.47 0-.469-.094-2.252.939-3.19zM13.27 5.252c.188-.188.282-.282.375-.188 1.784.282 2.628 1.314 2.91 1.877.094.282.375.376.657.376h.375c.094 0 .282.093.376.187.188.188.563.188.75.094.564-.375 1.784-.75 3.473-.188.094 0 .188.188.188.376.188.845-.375 2.159-.563 2.346-.375.094-1.783 0-2.91-1.032 0-.188-.187-.376-.375-.47-.282-.093-.563-.093-.75.094-.189.188-.376.188-.658.188-.281-.094-.47-.188-.47-.47-.093-.28-.28-.468-.562-.468-.188 0-.376.093-.563.187-1.502.282-2.816-.281-3.004-.469 0-.375.188-1.783.751-2.44zm-1.126 3.566c.844.47 2.252.845 3.66.563.282.376.657.564 1.126.657.47.094.845.094 1.314 0a5.313 5.313 0 003.004 1.314 8.317 8.317 0 012.159 4.787c-4.224-1.032-6.289-3.754-6.289-3.848-.094-.188-.375-.282-.563-.282-.188 0-.47.094-.563.282-2.253 3.754-8.072 4.036-9.949 3.942.188-3.379 2.628-6.382 6.1-7.415zM6.887 21.301c-.094-.188-.188-.375-.376-.47-1.314-.562-1.877-1.5-1.595-3.002 0-.094.094-.094.187-.094.188 0 .282 0 .47-.094h.844c2.347 0 7.509-.376 10.23-3.848 1.033 1.126 3.38 3.097 7.134 3.754.188.188.375.188.563.188.094 0 .094 0 .188.094.281 1.407-.282 2.44-1.596 3.003-.187.094-.375.281-.375.47-.657 2.346-2.159 4.786-4.036 6.194-1.126.844-2.346 1.408-3.754 1.408-3.755 0-6.758-3.755-7.884-7.603zm9.01 12.483c-.282.094-.657.094-1.032.094h-.47c-.375 0-.75 0-1.032-.094-2.253-.657-3.379-2.159-3.754-3.003a5.175 5.175 0 001.314-1.69 6.768 6.768 0 003.754 1.127c1.408 0 2.628-.47 3.754-1.127.282.47.657 1.127 1.314 1.69-.47.844-1.595 2.346-3.848 3.003z"></path><path d="M17.962 17.453c.281 0 .563.188.845.282.093.094.281.094.375.094.188 0 .47-.094.563-.282.188-.282.094-.75-.188-.939a4.425 4.425 0 00-1.407-.563c-.376-.094-.751.188-.751.563-.094.47.187.751.563.845zM14.677 26.745c1.126 0 2.252-.47 3.097-1.314.188-.188.188-.47 0-.563-.094-.094-.188-.094-.281-.094-.094 0-.188 0-.282.094-1.408 1.408-3.66 1.408-4.974 0-.094-.094-.188-.094-.282-.094-.094 0-.188 0-.282.094-.187.187-.187.469 0 .563.657.845 1.784 1.314 3.004 1.314z"></path><circle cx="11.016" cy="19.424" r="1"></circle><circle cx="18.056" cy="19.424" r="1"></circle></g></g></g></g></g></svg>