<svg xmlns="http://www.w3.org/2000/svg" width="55" height="48" viewBox="0 0 55 48"><g fill="none" fill-rule="evenodd" stroke="none" stroke-width="1"><g fill="#003B5C" fill-rule="nonzero" transform="translate(-539 -452)"><g transform="translate(460 220)"><g transform="translate(79 232)"><g transform="translate(38.281 21.563)"><path d="M0 0L3.90625 6.09375 7.65625 0z"></path></g><g><path d="M49.375 47.188H5.625C2.031 47.188 0 45.156 0 41.562V5.626C0 2.031 2.031 0 5.625 0h43.75C52.969 0 55 2.031 55 5.625v35.938c0 3.593-2.031 5.624-5.625 5.624zM5.625 1.874c-2.656 0-3.75 1.094-3.75 3.75v35.938c0 2.656 1.094 3.75 3.75 3.75h43.75c2.656 0 3.75-1.094 3.75-3.75V5.624c0-2.656-1.094-3.75-3.75-3.75H5.625zm22.656 31.25H11.563c-.47 0-.938-.469-.938-.938 0-.468.469-.937.938-.937H28.28c.469 0 .938.469.938.938 0 .468-.469.937-.938.937zm0-8.906H11.563c-.47 0-.938-.469-.938-.938 0-.468.469-.937.938-.937H28.28c.469 0 .938.468.938.937 0 .469-.469.938-.938.938zm0-8.907H11.563c-.47 0-.938-.468-.938-.937 0-.469.469-.938.938-.938H28.28c.469 0 .938.47.938.938 0 .469-.469.938-.938.938z"></path></g></g></g></g></g></svg>